<?xml version="1.0" encoding="UTF-8"?>
<svg width="90px" height="90px" viewBox="0 0 90 90" version="1.1" xmlns="http://www.w3.org/2000/svg" xmlns:xlink="http://www.w3.org/1999/xlink">
    <!-- Generator: Sketch 43.1 (39012) - http://www.bohemiancoding.com/sketch -->
    <title>events</title>
    <desc>Created with Sketch.</desc>
    <defs></defs>
    <g id="Page-5" stroke="none" stroke-width="1" fill="none" fill-rule="evenodd">
        <g id="Desktop-HD-Copy-6" transform="translate(-676.000000, -2287.000000)" fill-rule="nonzero">
            <g id="Group-9" transform="translate(0.000000, 2217.000000)">
                <g id="Product-Copy" transform="translate(487.000000, 0.000000)">
                    <g id="events" transform="translate(189.000000, 70.000000)">
                        <path d="M84.9988106,9.03223697 L67.4797845,9.03223697 L67.4797845,2.08933208 C67.4797845,0.957739953 66.5623677,0.0403231616 65.4307755,0.040323267 L65.0328364,0.040323267 C63.9012443,0.040323267 62.9838275,0.957740059 62.9838276,2.08933208 L62.9838276,9.03223697 L27.0161724,9.03223697 L27.0161724,2.08933208 C27.0161724,0.957739953 26.0987556,0.0403231616 24.9671636,0.040323267 L24.5692245,0.040323267 C23.4376323,0.040323267 22.5202155,0.957740059 22.5202155,2.08933208 L22.5202155,9.03223697 L5.00118945,9.03223697 C2.26144886,9.03223697 0.0404310773,11.2532548 0.0404310773,13.9929954 L0.0404310773,84.9987027 C0.0404310773,87.7384433 2.26144886,89.9594611 5.00118945,89.9594611 L84.9988106,89.9594611 C87.7385511,89.9594611 89.9595689,87.7384433 89.9595689,84.9987027 L89.9595689,13.9929954 C89.9595689,11.2532549 87.7385511,9.03223707 84.9988106,9.03223697 Z M85.4636121,83.4144953 C85.4636121,84.5460875 84.5461953,85.4635043 83.4146031,85.4635042 L6.58539685,85.4635042 C5.45380472,85.4635042 4.53638793,84.5460874 4.53638793,83.4144953 L4.53638793,36.0079784 L85.4636121,36.0079784 L85.4636121,83.4144953 Z M85.4636121,31.5120214 L4.53638793,31.5120214 L4.53638793,15.5772028 C4.53638793,14.4456107 5.45380472,13.5281939 6.58539685,13.5281939 L22.5202155,13.5281939 L22.5202155,20.4710988 C22.5202155,21.6026909 23.4376323,22.5201077 24.5692245,22.5201077 L24.9671636,22.5201077 C26.0987557,22.5201077 27.0161725,21.6026909 27.0161724,20.4710988 L27.0161724,13.5281939 L62.9838276,13.5281939 L62.9838276,20.4710988 C62.9838276,21.6026909 63.9012444,22.5201077 65.0328364,22.5201077 L65.4307755,22.5201077 C66.5623677,22.5201077 67.4797845,21.6026909 67.4797845,20.4710988 L67.4797845,13.5281939 L83.4146031,13.5281939 C84.5461953,13.5281939 85.4636121,14.4456107 85.4636121,15.5772028 L85.4636121,31.5120214 Z" id="Shape" fill="#005297"></path>
                        <path d="M11.0813537,58.4877628 L24.9671636,58.4877628 C26.0987557,58.4877628 27.0161725,57.5703461 27.0161724,56.4387539 L27.0161724,42.5529442 C27.0161724,41.421352 26.0987556,40.5039352 24.9671636,40.5039352 L11.0813537,40.5039352 C9.94976157,40.5039352 9.03234478,41.421352 9.03234488,42.5529442 L9.03234488,56.4387539 C9.03234488,57.5704539 9.94976167,58.4877628 11.0813537,58.4877628 Z M13.5283017,47.048901 C13.5283017,45.9173089 14.4457185,44.9998921 15.5773107,44.9998922 L20.4712066,44.9998922 C21.6027987,44.9998922 22.5202155,45.917309 22.5202155,47.048901 L22.5202155,51.9427971 C22.5202155,53.0743892 21.6027987,53.991806 20.4712066,53.991806 L15.5773107,53.991806 C14.4457185,53.991806 13.5283017,53.0743892 13.5283017,51.9427971 L13.5283017,47.048901 L13.5283017,47.048901 Z M38.0570951,58.4877628 L51.9429049,58.4877628 C53.074497,58.4877628 53.9919138,57.5703461 53.9919138,56.4387539 L53.9919138,42.5529442 C53.9919138,41.421352 53.074497,40.5039352 51.9429049,40.5039352 L38.0570951,40.5039352 C36.925503,40.5039352 36.0080862,41.421352 36.0080862,42.5529442 L36.0080862,56.4387539 C36.0080862,57.5704539 36.925503,58.4877628 38.0570951,58.4877628 Z M40.5040431,47.048901 C40.5040431,45.9173089 41.4214599,44.9998921 42.553052,44.9998922 L47.446948,44.9998922 C48.5785402,44.9998922 49.495957,45.917309 49.4959569,47.048901 L49.4959569,51.9427971 C49.4959569,53.0743892 48.5785401,53.991806 47.446948,53.991806 L42.553052,53.991806 C41.4214598,53.991806 40.504043,53.0743892 40.5040431,51.9427971 L40.5040431,47.048901 L40.5040431,47.048901 Z M65.0328364,58.4877628 L78.9186463,58.4877628 C80.0502384,58.4877628 80.9676552,57.5703461 80.9676551,56.4387539 L80.9676551,42.5529442 C80.9676551,41.421352 80.0502383,40.5039352 78.9186463,40.5039352 L65.0328364,40.5039352 C63.9012443,40.5039352 62.9838275,41.421352 62.9838276,42.5529442 L62.9838276,56.4387539 C62.9838276,57.5704539 63.9012444,58.4877628 65.0328364,58.4877628 Z M67.4797845,47.048901 C67.4797845,45.9173089 68.3972013,44.9998921 69.5287934,44.9998922 L74.4226893,44.9998922 C75.5542815,44.9998922 76.4716983,45.917309 76.4716983,47.048901 L76.4716983,51.9427971 C76.4716983,53.0743892 75.5542815,53.991806 74.4226893,53.991806 L69.5287934,53.991806 C68.3972013,53.991806 67.4797845,53.0743892 67.4797845,51.9427971 L67.4797845,47.048901 Z M11.0813537,80.9675473 L24.9671636,80.9675473 C26.0987557,80.9675473 27.0161725,80.0501305 27.0161724,78.9185384 L27.0161724,65.0327286 C27.0161724,63.9011365 26.0987556,62.9837197 24.9671636,62.9837197 L11.0813537,62.9837197 C9.94976157,62.9837197 9.03234478,63.9011365 9.03234488,65.0327286 L9.03234488,78.9185384 C9.03234488,80.0502383 9.94976167,80.9675473 11.0813537,80.9675473 Z M13.5283017,69.5286856 C13.5283017,68.3970934 14.4457185,67.4796767 15.5773107,67.4796767 L20.4712066,67.4796767 C21.6027987,67.4796767 22.5202155,68.3970934 22.5202155,69.5286856 L22.5202155,74.4225815 C22.5202155,75.5541737 21.6027987,76.4715905 20.4712066,76.4715905 L15.5773107,76.4715905 C14.4457185,76.4715905 13.5283017,75.5541737 13.5283017,74.4225815 L13.5283017,69.5286856 L13.5283017,69.5286856 Z M38.0570951,80.9675473 L51.9429049,80.9675473 C53.074497,80.9675473 53.9919138,80.0501305 53.9919138,78.9185384 L53.9919138,65.0327286 C53.9919138,63.9011365 53.074497,62.9837197 51.9429049,62.9837197 L38.0570951,62.9837197 C36.925503,62.9837197 36.0080862,63.9011365 36.0080862,65.0327286 L36.0080862,78.9185384 C36.0080862,80.0502383 36.925503,80.9675473 38.0570951,80.9675473 Z M40.5040431,69.5286856 C40.5040431,68.3970934 41.4214599,67.4796767 42.553052,67.4796767 L47.446948,67.4796767 C48.5785402,67.4796767 49.495957,68.3970934 49.4959569,69.5286856 L49.4959569,74.4225815 C49.4959569,75.5541737 48.5785401,76.4715905 47.446948,76.4715905 L42.553052,76.4715905 C41.4214598,76.4715905 40.504043,75.5541737 40.5040431,74.4225815 L40.5040431,69.5286856 L40.5040431,69.5286856 Z M65.0328364,80.9675473 L78.9186463,80.9675473 C80.0502384,80.9675473 80.9676552,80.0501305 80.9676551,78.9185384 L80.9676551,65.0327286 C80.9676551,63.9011365 80.0502383,62.9837197 78.9186463,62.9837197 L65.0328364,62.9837197 C63.9012443,62.9837197 62.9838275,63.9011365 62.9838276,65.0327286 L62.9838276,78.9185384 C62.9838276,80.0502383 63.9012444,80.9675473 65.0328364,80.9675473 Z M67.4797845,69.5286856 C67.4797845,68.3970934 68.3972013,67.4796767 69.5287934,67.4796767 L74.4226893,67.4796767 C75.5542815,67.4796767 76.4716983,68.3970934 76.4716983,69.5286856 L76.4716983,74.4225815 C76.4716983,75.5541737 75.5542815,76.4715905 74.4226893,76.4715905 L69.5287934,76.4715905 C68.3972013,76.4715905 67.4797845,75.5541737 67.4797845,74.4225815 L67.4797845,69.5286856 Z" id="Shape" fill="#D1382D"></path>
                    </g>
                </g>
            </g>
        </g>
    </g>
</svg>