<?xml version="1.0" encoding="UTF-8"?>
<svg width="90px" height="90px" viewBox="0 0 90 90" version="1.1" xmlns="http://www.w3.org/2000/svg" xmlns:xlink="http://www.w3.org/1999/xlink">
    <!-- Generator: Sketch 43.1 (39012) - http://www.bohemiancoding.com/sketch -->
    <title>industry_manufacture</title>
    <desc>Created with Sketch.</desc>
    <defs></defs>
    <g id="Page-5" stroke="none" stroke-width="1" fill="none" fill-rule="evenodd">
        <g id="Desktop-HD-Copy-6" transform="translate(-189.000000, -2296.000000)">
            <g id="Group-9" transform="translate(0.000000, 2217.000000)">
                <g id="Product">
                    <g id="industry_manufacture" transform="translate(189.000000, 79.000000)">
                        <path d="M74.3881082,89.8826451 C70.2167704,89.8868093 66.2179374,88.2204923 63.2867027,85.2566802 L32.4629189,49.9279892 C29.7991351,50.4082052 27.0903784,50.6569501 24.5511351,50.6569501 C17.3450811,50.6569501 11.5228108,48.6462618 7.71048645,44.8459919 C1.49518322,38.6483661 -1.20758447,29.7589004 0.507891892,21.1564912 C0.74322335,19.9483181 1.63305028,18.971762 2.8153513,18.6241296 C3.98889124,18.30375 5.24468853,18.6225229 6.12259455,19.4636438 L16.0062703,29.3305263 L24.2570811,31.037193 L31.0756757,24.2243455 L29.3701622,15.9812146 L19.4726486,6.10051287 C18.6015347,5.23846679 18.2828487,3.96411146 18.6458378,2.79427798 C19.0083577,1.6240045 19.9849271,0.746941548 21.1885406,0.510661215 C22.8525406,0.179001255 24.5788109,0.00971659919 26.3085406,0.00971659919 C33.2883336,-0.0123446016 39.9858165,2.76009338 44.9031352,7.70699053 C51.9777298,14.7616734 51.0194595,26.5563293 49.985081,32.4156545 L85.3234594,63.1529285 C91.5193513,69.3300945 91.5228107,79.2280702 85.4376216,85.3119568 C82.5136238,88.2482391 78.5347578,89.8941176 74.3881082,89.8826451 Z M33.2655135,45.4747638 C33.8743783,45.4747638 34.4659459,45.7338731 34.8741621,46.2071795 L66.4071351,82.3546558 C68.5293283,84.4562083 71.3994469,85.6315304 74.3881082,85.622888 C77.4220541,85.622888 80.2726487,84.4413496 82.4140541,82.2993792 C86.8388288,77.8662621 86.8372815,70.693453 82.4105946,66.2622402 L46.2557837,34.8236438 C45.6745716,34.3211694 45.411169,33.5439246 45.5673514,32.7922267 C46.3007567,29.2061538 48.2034595,17.0211066 41.8830271,10.7126586 C37.1358257,5.97504452 30.486508,3.65435737 23.8177298,4.40766534 L32.8434594,13.4212145 C33.139802,13.7137251 33.342141,14.0877878 33.4246487,14.4956546 L35.4934054,24.4869096 C35.6388215,25.1888445 35.4218257,25.9168105 34.9156756,26.4250472 L26.4676757,34.8616465 C25.9586116,35.3717621 25.2257433,35.5901559 24.52,35.4420513 L14.5152433,33.3726316 C14.1073959,33.288666 13.7332586,33.0868324 13.4393513,32.7922267 L4.42054058,23.7890418 C3.65521306,30.452114 5.98050808,37.0992088 10.7340541,41.8368691 C13.7230271,44.8183536 18.5005406,46.397193 24.5511351,46.397193 C27.1941622,46.397193 30.0620541,46.0931715 32.8296216,45.5196762 C32.972925,45.4893879 33.1190363,45.4743333 33.2655135,45.4747638 Z M17.0925406,89.519892 C15.6983784,89.519892 14.3872432,88.9809447 13.4047568,87.9963293 L5.53794592,80.1332254 C4.55874092,79.1616445 4.00939301,77.8392663 4.0123243,76.4607827 C4.0123243,75.0719568 4.55545946,73.7660458 5.54140545,72.7814305 L25.7031351,52.6365452 C27.6681081,50.674224 31.1068108,50.6707692 33.0752432,52.6365452 L40.4611892,61.211336 C42.3777297,63.1287449 42.3777297,66.4246154 40.3539459,68.4491228 L20.7803243,87.9963293 C19.8033677,88.9744893 18.4759493,89.5228959 17.0925406,89.519892 L17.0925406,89.519892 Z M29.390919,55.3727395 C29.1424825,55.3727371 28.9044385,55.4723068 28.7301622,55.6491228 L8.56151355,75.7905533 C8.38251685,75.9654474 8.28133914,76.2047948 8.28068868,76.4548766 C8.28003823,76.7049584 8.37996952,76.9448275 8.55805403,77.1206478 L16.4283243,84.9872065 C16.9022702,85.4639676 17.2793513,85.4674224 17.7602162,84.9837517 L37.3269189,65.44 C37.6963538,65.0693375 37.6963538,64.4702036 37.3269189,64.0995412 L29.9444325,55.53166 C29.8164325,55.4107422 29.5327568,55.3727396 29.390919,55.3727395 L29.390919,55.3727395 Z M60.1697297,40.4929555 C59.6531863,40.4942846 59.1538582,40.3075963 58.7651891,39.9678272 L53.8147026,35.6562483 C53.36755,35.2699716 53.1018438,34.7150561 53.0814911,34.124969 C53.0611384,33.5348818 53.2879811,32.9630237 53.7074595,32.5469366 L68.5623784,17.7120647 L70.4131892,13.0826451 C70.5609712,12.71636 70.8062063,12.3973873 71.1223784,12.1602159 L77.2698379,7.59643725 C78.1200585,6.96448817 79.3058307,7.0512784 80.0547028,7.80026988 L86.1433514,13.877247 C86.8912498,14.6237058 86.9767178,15.805399 86.3440001,16.651444 L81.7844325,22.7767881 C81.5490357,23.0931657 81.2305364,23.3382945 80.8642163,23.4850202 L76.2181622,25.3506073 L61.6815135,39.8710931 C61.2802085,40.2705469 60.7363327,40.4942667 60.1697297,40.4929555 L60.1697297,40.4929555 Z M58.3465946,33.9461269 L60.0694054,35.4489609 L73.5024865,22.0340081 C73.7065039,21.8301346 73.9502298,21.6702216 74.2185946,21.5641566 L78.7124324,19.7573009 L81.819027,15.5873684 L78.3388108,12.1118489 L74.1597838,15.2211606 L72.3677838,19.6985695 C72.2602911,19.9667335 72.0990028,20.210103 71.8938378,20.4137112 L58.3465946,33.9461269 L58.3465946,33.9461269 Z" id="Shape" fill="#005297" fill-rule="nonzero"></path>
                        <path d="M74.3846486,79.7739271 C72.9178379,79.7739271 71.5340541,79.2004318 70.4927567,78.1605398 C69.456398,77.1353518 68.8755875,75.7375622 68.8806486,74.2808098 C68.8806486,72.8125236 69.4514594,71.4340621 70.4927567,70.3976248 C72.5649729,68.3247503 76.1974054,68.3212955 78.2730811,70.3976248 C79.8489047,71.9673791 80.3213413,74.3311839 79.469693,76.3847909 C78.6180446,78.438398 76.6104083,79.7764695 74.3846486,79.7739271 L74.3846486,79.7739271 Z" id="Path" fill="#D1382D"></path>
                        <path d="M74.3846486,73.0509041 C74.0568825,73.0471629 73.7414471,73.1755402 73.5096663,73.4070082 C73.2778855,73.6384762 73.1493348,73.9534859 73.1530811,74.2808098 C73.1530811,74.6090149 73.281081,74.919946 73.5128649,75.151417 C73.9996186,75.6160078 74.7662192,75.6160078 75.252973,75.151417 C75.7336681,74.6689243 75.7336681,73.8892404 75.252973,73.4067476 C75.0232122,73.1763682 74.7102257,73.0481048 74.3846486,73.0509041 L74.3846486,73.0509041 Z" id="Path" fill="#D1382D"></path>
                    </g>
                </g>
            </g>
        </g>
    </g>
</svg>